<svg xmlns="http://www.w3.org/2000/svg" width="171" height="36" fill="none"><path fill="#fff" d="M9.444 6.625h5.943l.003 5.928H9.447z"></path><path fill="#fff" d="M15.2 6.625h5.943l.003 5.928h-5.943zM3.502 6.625h5.943l.003 5.928H3.505zM9.447 12.553h5.943l.003 5.928H9.45z"></path><path fill="#FFC700" d="M15.38 18.468h5.803l.003 5.788h-5.802z"></path><path fill="#fff" d="M158.653 24.339a4.8 4.8 0 0 1-2.594-.737q-1.177-.736-1.89-2.236-.706-1.5-.706-3.777-.002-2.382.736-3.872.746-1.49 1.923-2.184a4.85 4.85 0 0 1 2.489-.694q.98 0 1.718.343.738.334 1.237.9.498.556.756 1.224h.069l-.003-6.681h4.74l.009 17.542h-4.706l-.001-2.158h-.103a3.8 3.8 0 0 1-.79 1.199 3.7 3.7 0 0 1-1.236.83q-.72.3-1.648.3m1.75-3.632q.653 0 1.116-.377.471-.386.721-1.08.257-.702.256-1.661 0-.977-.258-1.67-.25-.703-.722-1.071-.463-.377-1.117-.377-.652 0-1.116.377-.455.368-.703 1.07-.24.695-.24 1.67 0 .977.241 1.68.25.694.705 1.07.464.369 1.117.369M145.577 24.407q-2.113 0-3.642-.805a5.66 5.66 0 0 1-2.345-2.33q-.817-1.524-.818-3.649-.001-2.039.823-3.563a5.9 5.9 0 0 1 2.325-2.373q1.503-.848 3.546-.848 1.495 0 2.706.463a5.7 5.7 0 0 1 2.07 1.345 5.9 5.9 0 0 1 1.323 2.124q.465 1.25.465 2.818l.001 1.096H140.25l-.002-2.604h7.419a1.8 1.8 0 0 0-.292-.993 1.86 1.86 0 0 0-.747-.677 2.2 2.2 0 0 0-1.057-.248q-.575 0-1.056.248a2 2 0 0 0-.772.668q-.283.429-.3 1.002l.001 2.81q0 .634.267 1.13.265.497.765.78.498.282 1.202.283.49 0 .893-.137.412-.137.704-.395.291-.265.429-.633h4.328q-.223 1.37-1.055 2.38-.833 1.004-2.206 1.56-1.365.548-3.194.548M130.954 24.407q-2.112 0-3.641-.805a5.66 5.66 0 0 1-2.345-2.33q-.817-1.524-.818-3.649-.002-2.039.823-3.563a5.9 5.9 0 0 1 2.325-2.373q1.503-.848 3.546-.848 1.495 0 2.706.463a5.7 5.7 0 0 1 2.07 1.345 5.9 5.9 0 0 1 1.323 2.124q.465 1.25.465 2.818l.001 1.096h-11.781l-.002-2.604h7.419a1.8 1.8 0 0 0-.292-.993 1.86 1.86 0 0 0-.748-.677 2.2 2.2 0 0 0-1.056-.248q-.575 0-1.056.248a2 2 0 0 0-.772.668q-.283.429-.3 1.002l.001 2.81q0 .634.267 1.13.266.497.764.78.499.282 1.203.283.49 0 .893-.137a2 2 0 0 0 .704-.395q.291-.265.429-.633h4.328q-.223 1.37-1.055 2.38-.833 1.004-2.206 1.56-1.365.548-3.195.548M123.29 11.906l.002 3.426h-8.828l-.001-3.427zm-7.138 12.261-.006-12.638q-.002-1.628.582-2.699a3.75 3.75 0 0 1 1.648-1.601q1.064-.531 2.507-.531.902 0 1.752.137a17 17 0 0 1 1.271.24l-.685 3.391a4 4 0 0 0-.601-.12 4 4 0 0 0-.602-.05q-.67 0-.901.282-.232.282-.232.745l.007 12.844zM106.319 29.375q-1.983 0-3.401-.565-1.409-.556-2.19-1.542a4 4 0 0 1-.869-2.244h4.569q.069.42.344.676t.704.369q.438.12.979.12.918 0 1.52-.446.61-.445.608-1.61l-.001-2.227h-.137a2.9 2.9 0 0 1-.79 1.14 3.7 3.7 0 0 1-1.279.71q-.746.24-1.64.24a5.3 5.3 0 0 1-2.593-.651q-1.177-.651-1.891-2.064-.705-1.414-.706-3.692 0-2.382.737-3.872.746-1.49 1.922-2.184a4.86 4.86 0 0 1 2.49-.694q.979 0 1.718.343.739.334 1.237.9.498.556.756 1.224h.103l-.001-2.295h4.74l.007 13.122q0 1.67-.866 2.835-.858 1.174-2.421 1.79t-3.649.617m.167-8.737q.653 0 1.116-.36.472-.367.721-1.045.258-.685.257-1.644 0-.977-.258-1.67-.25-.703-.722-1.071a1.72 1.72 0 0 0-1.117-.377q-.653 0-1.116.377-.455.368-.704 1.07-.24.695-.239 1.67 0 .978.241 1.663.249.675.705 1.036.464.351 1.116.351M89.514 16.767l.003 7.4h-4.74l-.006-13.157h4.5v2.502h.138a3.73 3.73 0 0 1 1.51-1.962q1.09-.71 2.542-.71 1.4 0 2.43.642a4.3 4.3 0 0 1 1.607 1.747q.576 1.113.568 2.544l.004 8.394h-4.74l-.004-7.4q.01-.976-.499-1.534-.498-.556-1.391-.556-.584 0-1.022.257a1.65 1.65 0 0 0-.66.72q-.233.461-.24 1.113M77.61 24.167l-.007-12.44h4.756l.006 12.44z"></path><path fill="#FFC700" d="m77.6 6.626.003 4.207h4.755l-.002-4.207z"></path><path fill="#fff" d="M66.811 24.339a4.8 4.8 0 0 1-2.594-.737q-1.176-.736-1.89-2.236-.705-1.5-.706-3.777 0-2.382.736-3.872.747-1.49 1.923-2.184a4.85 4.85 0 0 1 2.49-.694q.978 0 1.717.343.74.334 1.237.9.498.556.757 1.224h.068l-.003-6.681h4.74l.009 17.542h-4.706V22.01h-.104a3.704 3.704 0 0 1-2.025 2.03q-.721.3-1.649.3m1.75-3.632q.653 0 1.116-.377.472-.386.72-1.08.258-.702.257-1.661 0-.977-.258-1.67-.25-.703-.722-1.071a1.7 1.7 0 0 0-1.116-.377q-.654 0-1.117.377-.454.368-.703 1.07-.24.695-.24 1.67 0 .977.242 1.68.249.694.704 1.07.465.369 1.117.369M51.933 24.373q-1.262 0-2.233-.411a3.36 3.36 0 0 1-1.512-1.268q-.55-.848-.55-2.159 0-1.08.368-1.841.37-.771 1.03-1.26.66-.487 1.537-.745a9.3 9.3 0 0 1 1.906-.334q1.107-.085 1.777-.205.678-.129.979-.351a.73.73 0 0 0 .3-.608v-.035q0-.513-.395-.788-.396-.274-1.014-.274-.678 0-1.107.3-.421.291-.506.9H48.15q.086-1.2.763-2.21.687-1.02 2-1.628 1.315-.617 3.28-.617 1.417 0 2.542.334 1.125.326 1.916.917.789.582 1.203 1.37.42.78.421 1.696l.005 9.011h-4.431l-.001-1.85h-.103a3.8 3.8 0 0 1-.961 1.19 3.5 3.5 0 0 1-1.28.66 5.7 5.7 0 0 1-1.57.206m1.544-2.981q.541 0 1.014-.223.48-.222.78-.642t.3-1.02v-1.096q-.189.077-.403.146a8.23 8.23 0 0 1-.944.24q-.258.05-.542.094-.55.085-.901.283-.344.188-.515.47a1.2 1.2 0 0 0-.163.617q0 .549.387.84t.987.291M38.387 24.167l-.006-12.262h4.603v2.502h.138q.36-1.388 1.141-2.03a2.84 2.84 0 0 1 1.846-.643q.31 0 .61.052.31.042.593.128l.002 4.034a4.3 4.3 0 0 0-.868-.18 8 8 0 0 0-.884-.06q-.696 0-1.254.318a2.23 2.23 0 0 0-.867.873q-.317.557-.317 1.31l.003 5.958z"></path><path fill="#fff" d="m26.293 10.462-.002-3.837h15.285l.002 3.837h-5.29l.007 13.705H31.59l-.007-13.705z"></path></svg>